<mxfile host="65bd71144e" pages="8">
    <diagram id="2fujvJEsIon3Cvw6nRpC" name="Splash">
        <mxGraphModel dx="1074" dy="790" grid="1" gridSize="10" guides="1" tooltips="1" connect="1" arrows="1" fold="1" page="1" pageScale="1" pageWidth="827" pageHeight="1169" math="0" shadow="0">
            <root>
                <mxCell id="0"/>
                <mxCell id="1" parent="0"/>
                <mxCell id="d3dXNECHzbeOLUC-8AOF-14" value="" style="shape=image;imageAspect=0;aspect=fixed;verticalLabelPosition=bottom;verticalAlign=top;image=https://img.itch.zone/aW1hZ2UvMjEwMDI0Lzk4NTc5OC5wbmc=/original/HeMVxj.png;" parent="1" vertex="1">
                    <mxGeometry x="590" y="40" width="191.65" height="330" as="geometry"/>
                </mxCell>
                <mxCell id="d3dXNECHzbeOLUC-8AOF-15" value="" style="verticalLabelPosition=bottom;verticalAlign=top;html=1;shadow=0;dashed=0;strokeWidth=1;shape=mxgraph.android.phone2;strokeColor=#c0c0c0;" parent="1" vertex="1">
                    <mxGeometry x="170" y="40" width="310" height="610" as="geometry"/>
                </mxCell>
                <mxCell id="d3dXNECHzbeOLUC-8AOF-16" value="" style="shape=image;imageAspect=0;aspect=fixed;verticalLabelPosition=bottom;verticalAlign=top;image=https://image.shutterstock.com/display_pic_with_logo/218382783/1855601101/stock-vector-black-and-white-tic-tac-toe-poster-design-vector-two-pieces-minimalist-art-design-artwork-1855601101.jpg;rotation=0;" parent="1" vertex="1">
                    <mxGeometry x="331.65" y="680" width="450" height="280" as="geometry"/>
                </mxCell>
                <mxCell id="d3dXNECHzbeOLUC-8AOF-17" value="" style="shape=image;imageAspect=0;aspect=fixed;verticalLabelPosition=bottom;verticalAlign=top;image=https://miro.medium.com/max/1400/1*e9TQzdWNLpcq54m6uOea4w.png;" parent="1" vertex="1">
                    <mxGeometry x="540" y="450" width="316.22" height="180" as="geometry"/>
                </mxCell>
                <mxCell id="uugo87M07cLCo45sfSnA-2" value="" style="rounded=0;whiteSpace=wrap;html=1;fillColor=#D9D9D9;strokeColor=#36393d;" parent="1" vertex="1">
                    <mxGeometry x="180" y="90" width="290" height="510" as="geometry"/>
                </mxCell>
                <mxCell id="uugo87M07cLCo45sfSnA-1" value="" style="shape=image;imageAspect=0;aspect=fixed;verticalLabelPosition=bottom;verticalAlign=top;image=https://thumbs.dreamstime.com/b/tic-tac-toe-icon-filled-tic-tac-toe-icon-website-design-mobile-app-development-tic-tac-toe-icon-filled-arcade-tic-tac-157804876.jpg;" parent="1" vertex="1">
                    <mxGeometry x="130" y="700" width="200" height="200" as="geometry"/>
                </mxCell>
                <mxCell id="uugo87M07cLCo45sfSnA-3" value="" style="shape=image;imageAspect=0;aspect=fixed;verticalLabelPosition=bottom;verticalAlign=top;image=https://cdn.icon-icons.com/icons2/390/PNG/512/tic-tac-toe_39453.png;" parent="1" vertex="1">
                    <mxGeometry x="229" y="290" width="192" height="192" as="geometry"/>
                </mxCell>
                <mxCell id="uugo87M07cLCo45sfSnA-4" value="&lt;font style=&quot;font-size: 36px&quot; face=&quot;Lucida Console&quot;&gt;&lt;b&gt;TIC TAC TOE&lt;/b&gt;&lt;/font&gt;" style="text;html=1;strokeColor=none;fillColor=none;align=center;verticalAlign=middle;whiteSpace=wrap;rounded=0;" parent="1" vertex="1">
                    <mxGeometry x="210" y="160" width="230" height="70" as="geometry"/>
                </mxCell>
                <mxCell id="hkW_lmA-1GZqu9D2JWZB-2" value="BY BVRB" style="text;html=1;strokeColor=none;fillColor=none;align=center;verticalAlign=middle;whiteSpace=wrap;rounded=0;fontFamily=Lucida Console;fontSize=18;" parent="1" vertex="1">
                    <mxGeometry x="282.5" y="565" width="85" height="30" as="geometry"/>
                </mxCell>
                <mxCell id="Aw2tzcaiatTezA8rqV_E-1" value="" style="strokeColor=#000000;verticalLabelPosition=bottom;shadow=0;dashed=0;verticalAlign=top;strokeWidth=2;html=1;shape=mxgraph.mockup.misc.registeredIcon;fontFamily=Lucida Console;fontSize=18;fillColor=#D9D9D9;" parent="1" vertex="1">
                    <mxGeometry x="367.5" y="560" width="12.5" height="15" as="geometry"/>
                </mxCell>
            </root>
        </mxGraphModel>
    </diagram>
    <diagram id="pI1LhYA1R1bP-oZ59VwP" name="Home">
        <mxGraphModel dx="469" dy="192" grid="1" gridSize="10" guides="1" tooltips="1" connect="1" arrows="1" fold="1" page="1" pageScale="1" pageWidth="827" pageHeight="1169" math="0" shadow="0">
            <root>
                <mxCell id="QYzV90UZsmqpUp89XR0e-0"/>
                <mxCell id="QYzV90UZsmqpUp89XR0e-1" parent="QYzV90UZsmqpUp89XR0e-0"/>
                <mxCell id="_7oUnB4ghNHtTN4r0aFl-0" value="" style="rounded=0;whiteSpace=wrap;html=1;fontFamily=Lucida Console;fontSize=36;rotation=-90;fillColor=#D9D9D9;strokeColor=#36393d;" parent="QYzV90UZsmqpUp89XR0e-1" vertex="1">
                    <mxGeometry x="210" y="360" width="510" height="290" as="geometry"/>
                </mxCell>
                <mxCell id="d13KPkwNu2ae5eqAszeH-0" value="" style="verticalLabelPosition=bottom;verticalAlign=top;html=1;shadow=0;dashed=0;strokeWidth=1;shape=mxgraph.android.phone2;strokeColor=#c0c0c0;fontFamily=Lucida Console;fontSize=36;" parent="QYzV90UZsmqpUp89XR0e-1" vertex="1">
                    <mxGeometry x="310" y="200" width="310" height="610" as="geometry"/>
                </mxCell>
                <mxCell id="dmM5gOBvPOsPFhlSRjZ8-0" value="" style="rounded=0;whiteSpace=wrap;html=1;fontFamily=Lucida Console;fontSize=36;fillColor=#FFFFFF;strokeColor=#0e8088;" parent="QYzV90UZsmqpUp89XR0e-1" vertex="1">
                    <mxGeometry x="350" y="400" width="230" height="60" as="geometry"/>
                </mxCell>
                <mxCell id="dmM5gOBvPOsPFhlSRjZ8-1" value="" style="shape=image;imageAspect=0;aspect=fixed;verticalLabelPosition=bottom;verticalAlign=top;fontFamily=Lucida Console;fontSize=36;image=https://cdn.icon-icons.com/icons2/390/PNG/512/tic-tac-toe_39453.png;" parent="QYzV90UZsmqpUp89XR0e-1" vertex="1">
                    <mxGeometry x="415" y="280" width="100" height="100" as="geometry"/>
                </mxCell>
                <mxCell id="dmM5gOBvPOsPFhlSRjZ8-2" value="" style="rounded=0;whiteSpace=wrap;html=1;fontFamily=Lucida Console;fontSize=36;fillColor=#FFFFFF;strokeColor=#0e8088;" parent="QYzV90UZsmqpUp89XR0e-1" vertex="1">
                    <mxGeometry x="350" y="490" width="230" height="60" as="geometry"/>
                </mxCell>
                <mxCell id="dmM5gOBvPOsPFhlSRjZ8-3" value="" style="rounded=0;whiteSpace=wrap;html=1;fontFamily=Lucida Console;fontSize=36;fillColor=#FFFFFF;strokeColor=#0e8088;" parent="QYzV90UZsmqpUp89XR0e-1" vertex="1">
                    <mxGeometry x="350" y="584.5" width="230" height="60" as="geometry"/>
                </mxCell>
                <mxCell id="dmM5gOBvPOsPFhlSRjZ8-4" value="&lt;font style=&quot;font-size: 22px&quot;&gt;SINGLE PLAYER&lt;/font&gt;" style="text;html=1;strokeColor=none;fillColor=none;align=center;verticalAlign=middle;whiteSpace=wrap;rounded=0;fontFamily=Lucida Console;fontSize=36;" parent="QYzV90UZsmqpUp89XR0e-1" vertex="1">
                    <mxGeometry x="360" y="427.5" width="210" height="5" as="geometry"/>
                </mxCell>
                <mxCell id="dmM5gOBvPOsPFhlSRjZ8-5" style="edgeStyle=orthogonalEdgeStyle;rounded=0;orthogonalLoop=1;jettySize=auto;html=1;exitX=0.5;exitY=1;exitDx=0;exitDy=0;fontFamily=Lucida Console;fontSize=24;" parent="QYzV90UZsmqpUp89XR0e-1" source="dmM5gOBvPOsPFhlSRjZ8-4" target="dmM5gOBvPOsPFhlSRjZ8-4" edge="1">
                    <mxGeometry relative="1" as="geometry"/>
                </mxCell>
                <mxCell id="dmM5gOBvPOsPFhlSRjZ8-6" value="MULTI PLAYER" style="text;html=1;strokeColor=none;fillColor=none;align=center;verticalAlign=middle;whiteSpace=wrap;rounded=0;fontFamily=Lucida Console;fontSize=22;" parent="QYzV90UZsmqpUp89XR0e-1" vertex="1">
                    <mxGeometry x="375" y="507.5" width="180" height="25" as="geometry"/>
                </mxCell>
                <mxCell id="dmM5gOBvPOsPFhlSRjZ8-7" value="NEGOZIO" style="text;html=1;strokeColor=none;fillColor=none;align=center;verticalAlign=middle;whiteSpace=wrap;rounded=0;fontFamily=Lucida Console;fontSize=22;" parent="QYzV90UZsmqpUp89XR0e-1" vertex="1">
                    <mxGeometry x="435" y="604.25" width="60" height="20.5" as="geometry"/>
                </mxCell>
                <mxCell id="gduh4A2nDvPOUCm7gVuA-0" value="" style="shape=image;html=1;verticalAlign=top;verticalLabelPosition=bottom;labelBackgroundColor=#ffffff;imageAspect=0;aspect=fixed;image=https://cdn4.iconfinder.com/data/icons/evil-icons-user-interface/64/menu-128.png;fontFamily=Lucida Console;fontSize=22;" parent="QYzV90UZsmqpUp89XR0e-1" vertex="1">
                    <mxGeometry x="570" y="260" width="30" height="30" as="geometry"/>
                </mxCell>
            </root>
        </mxGraphModel>
    </diagram>
    <diagram id="_Ney9_rczCvjH-Kbnn2X" name="Hamburger">
        <mxGraphModel dx="1102" dy="865" grid="1" gridSize="10" guides="1" tooltips="1" connect="1" arrows="1" fold="1" page="1" pageScale="1" pageWidth="827" pageHeight="1169" math="0" shadow="0">
            <root>
                <mxCell id="3Az9QgTdxvKtCZmyPwir-0"/>
                <mxCell id="3Az9QgTdxvKtCZmyPwir-1" parent="3Az9QgTdxvKtCZmyPwir-0"/>
                <mxCell id="ir2IjRzJ5tcpLq1XKn8O-0" value="" style="rounded=0;whiteSpace=wrap;html=1;fillColor=#D9D9D9;rotation=-90;" parent="3Az9QgTdxvKtCZmyPwir-1" vertex="1">
                    <mxGeometry x="215" y="575" width="500" height="300" as="geometry"/>
                </mxCell>
                <mxCell id="tjD_ger1dloUFlUBI11P-0" value="" style="verticalLabelPosition=bottom;verticalAlign=top;html=1;shadow=0;dashed=0;strokeWidth=1;shape=mxgraph.android.phone2;strokeColor=#c0c0c0;fillColor=#FFFFFF;" parent="3Az9QgTdxvKtCZmyPwir-1" vertex="1">
                    <mxGeometry x="310" y="420" width="310" height="610" as="geometry"/>
                </mxCell>
                <mxCell id="EdFxfgD1VDBOBCAjg3x6-1" value="" style="rounded=0;whiteSpace=wrap;html=1;align=center;" parent="3Az9QgTdxvKtCZmyPwir-1" vertex="1">
                    <mxGeometry x="340" y="600" width="250" height="40" as="geometry"/>
                </mxCell>
                <mxCell id="EdFxfgD1VDBOBCAjg3x6-2" value="" style="rounded=0;whiteSpace=wrap;html=1;" parent="3Az9QgTdxvKtCZmyPwir-1" vertex="1">
                    <mxGeometry x="340" y="650" width="250" height="40" as="geometry"/>
                </mxCell>
                <mxCell id="EdFxfgD1VDBOBCAjg3x6-3" value="" style="rounded=0;whiteSpace=wrap;html=1;" parent="3Az9QgTdxvKtCZmyPwir-1" vertex="1">
                    <mxGeometry x="340" y="705" width="250" height="40" as="geometry"/>
                </mxCell>
                <mxCell id="5B8Ag-1s1NyBom3GuKKK-0" value="" style="strokeColor=#999999;verticalLabelPosition=bottom;shadow=0;dashed=0;verticalAlign=top;strokeWidth=2;html=1;shape=mxgraph.mockup.misc.volumeIcon;fontFamily=Lucida Console;fontSize=18;fillColor=#FFFFFF;" parent="3Az9QgTdxvKtCZmyPwir-1" vertex="1">
                    <mxGeometry x="350" y="608" width="25" height="25" as="geometry"/>
                </mxCell>
                <mxCell id="5B8Ag-1s1NyBom3GuKKK-1" value="" style="html=1;verticalLabelPosition=bottom;align=center;labelBackgroundColor=#ffffff;verticalAlign=top;strokeWidth=2;strokeColor=#000000;shadow=0;dashed=0;shape=mxgraph.ios7.icons.flag;fontFamily=Lucida Console;fontSize=18;fillColor=#FFFFFF;" parent="3Az9QgTdxvKtCZmyPwir-1" vertex="1">
                    <mxGeometry x="350" y="657.5" width="20" height="25" as="geometry"/>
                </mxCell>
                <mxCell id="5B8Ag-1s1NyBom3GuKKK-4" value="" style="verticalLabelPosition=bottom;verticalAlign=top;html=1;shadow=0;dashed=0;strokeWidth=1;shape=mxgraph.android.switch_on;fillColor=#666666;sketch=0;fontFamily=Lucida Console;fontSize=18;" parent="3Az9QgTdxvKtCZmyPwir-1" vertex="1">
                    <mxGeometry x="520" y="610" width="60" height="20" as="geometry"/>
                </mxCell>
                <mxCell id="5B8Ag-1s1NyBom3GuKKK-5" value="&lt;span&gt;AUDIO&lt;/span&gt;" style="text;html=1;strokeColor=none;fillColor=none;align=center;verticalAlign=middle;whiteSpace=wrap;rounded=0;fontFamily=Lucida Console;fontSize=18;" parent="3Az9QgTdxvKtCZmyPwir-1" vertex="1">
                    <mxGeometry x="390" y="605" width="60" height="30" as="geometry"/>
                </mxCell>
                <mxCell id="5B8Ag-1s1NyBom3GuKKK-7" value="LINGUA" style="text;html=1;strokeColor=none;fillColor=none;align=center;verticalAlign=middle;whiteSpace=wrap;rounded=0;fontFamily=Lucida Console;fontSize=18;" parent="3Az9QgTdxvKtCZmyPwir-1" vertex="1">
                    <mxGeometry x="390" y="655" width="60" height="30" as="geometry"/>
                </mxCell>
                <mxCell id="5B8Ag-1s1NyBom3GuKKK-8" value="SFONDO" style="text;html=1;strokeColor=none;fillColor=none;align=center;verticalAlign=middle;whiteSpace=wrap;rounded=0;fontFamily=Lucida Console;fontSize=18;" parent="3Az9QgTdxvKtCZmyPwir-1" vertex="1">
                    <mxGeometry x="390" y="710" width="60" height="30" as="geometry"/>
                </mxCell>
                <mxCell id="5B8Ag-1s1NyBom3GuKKK-13" value="" style="fillColor=#D9D9D9;strokeColor=none;fontFamily=Lucida Console;fontSize=18;" parent="3Az9QgTdxvKtCZmyPwir-1" vertex="1">
                    <mxGeometry x="347.5" y="712.5" width="27.5" height="25" as="geometry"/>
                </mxCell>
                <mxCell id="usQ4iwxU2FZ0Kb0rONea-0" value="" style="html=1;verticalLabelPosition=bottom;align=center;labelBackgroundColor=#ffffff;verticalAlign=top;strokeWidth=2;strokeColor=#000033;shadow=0;dashed=0;shape=mxgraph.ios7.icons.back;fontFamily=Lucida Console;fontSize=18;fillColor=#190033;" parent="3Az9QgTdxvKtCZmyPwir-1" vertex="1">
                    <mxGeometry x="330" y="490" width="30" height="25.5" as="geometry"/>
                </mxCell>
                <mxCell id="0nQVssNnnhKOgy_q-kSb-0" value="IMPOSTAZIONI" style="text;html=1;strokeColor=none;fillColor=none;align=center;verticalAlign=middle;whiteSpace=wrap;rounded=0;fontFamily=Lucida Console;fontSize=18;" parent="3Az9QgTdxvKtCZmyPwir-1" vertex="1">
                    <mxGeometry x="435" y="545" width="60" height="30" as="geometry"/>
                </mxCell>
                <mxCell id="0nQVssNnnhKOgy_q-kSb-1" value="" style="sketch=0;outlineConnect=0;fontColor=#232F3E;gradientColor=none;fillColor=#232F3D;strokeColor=none;dashed=0;verticalLabelPosition=bottom;verticalAlign=top;align=center;html=1;fontSize=12;fontStyle=0;aspect=fixed;pointerEvents=1;shape=mxgraph.aws4.gear;fontFamily=Lucida Console;" parent="3Az9QgTdxvKtCZmyPwir-1" vertex="1">
                    <mxGeometry x="448" y="511" width="34" height="34" as="geometry"/>
                </mxCell>
                <mxCell id="nKCXICEI87PGRxtzeZac-1" value="" style="rounded=0;whiteSpace=wrap;html=1;" parent="3Az9QgTdxvKtCZmyPwir-1" vertex="1">
                    <mxGeometry x="340" y="760" width="250" height="40" as="geometry"/>
                </mxCell>
                <mxCell id="nKCXICEI87PGRxtzeZac-0" value="" style="strokeColor=#999999;verticalLabelPosition=bottom;shadow=0;dashed=0;verticalAlign=top;strokeWidth=2;html=1;shape=mxgraph.mockup.misc.shareIcon;rounded=0;fontFamily=Lucida Console;fontSize=14;fontColor=default;fillColor=#FFFFFF;" parent="3Az9QgTdxvKtCZmyPwir-1" vertex="1">
                    <mxGeometry x="347.5" y="766.25" width="32.5" height="27.5" as="geometry"/>
                </mxCell>
                <mxCell id="nKCXICEI87PGRxtzeZac-2" value="&lt;span style=&quot;color: rgb(0 , 0 , 0) ; font-family: &amp;#34;lucida console&amp;#34; ; font-size: 18px ; font-style: normal ; font-weight: 400 ; letter-spacing: normal ; text-align: center ; text-indent: 0px ; text-transform: none ; word-spacing: 0px ; background-color: rgb(248 , 249 , 250) ; display: inline ; float: none&quot;&gt;CONDIVIDI&lt;/span&gt;" style="text;whiteSpace=wrap;html=1;fontSize=14;fontFamily=Lucida Console;fontColor=default;" parent="3Az9QgTdxvKtCZmyPwir-1" vertex="1">
                    <mxGeometry x="390" y="763.75" width="90" height="30" as="geometry"/>
                </mxCell>
                <mxCell id="nKCXICEI87PGRxtzeZac-4" value="" style="rounded=0;whiteSpace=wrap;html=1;" parent="3Az9QgTdxvKtCZmyPwir-1" vertex="1">
                    <mxGeometry x="340" y="820" width="250" height="40" as="geometry"/>
                </mxCell>
                <mxCell id="nKCXICEI87PGRxtzeZac-5" value="" style="dashed=0;outlineConnect=0;html=1;align=center;labelPosition=center;verticalLabelPosition=bottom;verticalAlign=top;shape=mxgraph.webicons.facebook;fillColor=#6294E4;gradientColor=#1A2665;rounded=0;fontFamily=Lucida Console;fontSize=14;fontColor=default;strokeColor=#000033;" parent="3Az9QgTdxvKtCZmyPwir-1" vertex="1">
                    <mxGeometry x="346" y="825" width="34" height="30" as="geometry"/>
                </mxCell>
                <mxCell id="nKCXICEI87PGRxtzeZac-6" value="&lt;span style=&quot;color: rgb(0 , 0 , 0) ; font-family: &amp;#34;lucida console&amp;#34; ; font-size: 18px ; font-style: normal ; font-weight: 400 ; letter-spacing: normal ; text-align: center ; text-indent: 0px ; text-transform: none ; word-spacing: 0px ; background-color: rgb(248 , 249 , 250) ; display: inline ; float: none&quot;&gt;ACCEDI CON FACEBOOK&lt;/span&gt;" style="text;whiteSpace=wrap;html=1;fontSize=14;fontFamily=Lucida Console;fontColor=default;" parent="3Az9QgTdxvKtCZmyPwir-1" vertex="1">
                    <mxGeometry x="380" y="825" width="280" height="30" as="geometry"/>
                </mxCell>
            </root>
        </mxGraphModel>
    </diagram>
    <diagram id="SmuToj3_kLjO1HK09l6e" name="Negozio">
        <mxGraphModel dx="1102" dy="865" grid="1" gridSize="10" guides="1" tooltips="1" connect="1" arrows="1" fold="1" page="1" pageScale="1" pageWidth="827" pageHeight="1169" math="0" shadow="0">
            <root>
                <mxCell id="oTMHULYfvm19Lml6Ax3H-0"/>
                <mxCell id="oTMHULYfvm19Lml6Ax3H-1" parent="oTMHULYfvm19Lml6Ax3H-0"/>
                <mxCell id="oTMHULYfvm19Lml6Ax3H-3" value="" style="rounded=0;whiteSpace=wrap;html=1;fontFamily=Lucida Console;fontSize=18;strokeColor=#000033;fillColor=#D9D9D9;" parent="oTMHULYfvm19Lml6Ax3H-1" vertex="1">
                    <mxGeometry x="242.05" y="260" width="290" height="510" as="geometry"/>
                </mxCell>
                <mxCell id="oTMHULYfvm19Lml6Ax3H-2" value="" style="verticalLabelPosition=bottom;verticalAlign=top;html=1;shadow=0;dashed=0;strokeWidth=1;shape=mxgraph.android.phone2;strokeColor=#c0c0c0;fontFamily=Lucida Console;fontSize=18;fillColor=#FFFFFF;" parent="oTMHULYfvm19Lml6Ax3H-1" vertex="1">
                    <mxGeometry x="230" y="210" width="310" height="610" as="geometry"/>
                </mxCell>
                <mxCell id="yRlX4yiGESKXegxQO9CW-1" value="&lt;font style=&quot;font-size: 14px&quot;&gt;100&lt;/font&gt;" style="rounded=0;whiteSpace=wrap;html=1;fontFamily=Lucida Console;fontSize=18;strokeColor=#000033;fillColor=#FFFFFF;" parent="oTMHULYfvm19Lml6Ax3H-1" vertex="1">
                    <mxGeometry x="460" y="290" width="60" height="20" as="geometry"/>
                </mxCell>
                <mxCell id="yRlX4yiGESKXegxQO9CW-0" value="" style="image;html=1;image=img/lib/clip_art/finance/Coins_128x128.png;fontFamily=Lucida Console;fontSize=18;strokeColor=#000033;fillColor=#D9D9D9;" parent="oTMHULYfvm19Lml6Ax3H-1" vertex="1">
                    <mxGeometry x="410" y="275" width="65" height="50" as="geometry"/>
                </mxCell>
                <mxCell id="yRlX4yiGESKXegxQO9CW-2" value="" style="rounded=0;whiteSpace=wrap;html=1;fontFamily=Lucida Console;fontSize=14;fontColor=default;strokeColor=#000033;fillColor=#FFFFFF;" parent="oTMHULYfvm19Lml6Ax3H-1" vertex="1">
                    <mxGeometry x="265" y="350" width="80" height="140" as="geometry"/>
                </mxCell>
                <mxCell id="yRlX4yiGESKXegxQO9CW-3" value="" style="rounded=0;whiteSpace=wrap;html=1;fontFamily=Lucida Console;fontSize=14;fontColor=default;strokeColor=#000033;fillColor=#FFFFFF;" parent="oTMHULYfvm19Lml6Ax3H-1" vertex="1">
                    <mxGeometry x="350" y="350" width="80" height="140" as="geometry"/>
                </mxCell>
                <mxCell id="yRlX4yiGESKXegxQO9CW-4" value="" style="rounded=0;whiteSpace=wrap;html=1;fontFamily=Lucida Console;fontSize=14;fontColor=default;strokeColor=#000033;fillColor=#FFFFFF;" parent="oTMHULYfvm19Lml6Ax3H-1" vertex="1">
                    <mxGeometry x="440" y="350" width="80" height="140" as="geometry"/>
                </mxCell>
                <mxCell id="yRlX4yiGESKXegxQO9CW-7" value="" style="rounded=0;whiteSpace=wrap;html=1;fontFamily=Lucida Console;fontSize=14;fontColor=default;strokeColor=#000033;fillColor=#FFFFFF;" parent="oTMHULYfvm19Lml6Ax3H-1" vertex="1">
                    <mxGeometry x="265" y="500" width="80" height="140" as="geometry"/>
                </mxCell>
                <mxCell id="yRlX4yiGESKXegxQO9CW-8" value="" style="rounded=0;whiteSpace=wrap;html=1;fontFamily=Lucida Console;fontSize=14;fontColor=default;strokeColor=#000033;fillColor=#FFFFFF;" parent="oTMHULYfvm19Lml6Ax3H-1" vertex="1">
                    <mxGeometry x="350" y="500" width="80" height="140" as="geometry"/>
                </mxCell>
                <mxCell id="yRlX4yiGESKXegxQO9CW-9" value="" style="rounded=0;whiteSpace=wrap;html=1;fontFamily=Lucida Console;fontSize=14;fontColor=default;strokeColor=#000033;fillColor=#FFFFFF;" parent="oTMHULYfvm19Lml6Ax3H-1" vertex="1">
                    <mxGeometry x="440" y="500" width="80" height="140" as="geometry"/>
                </mxCell>
                <mxCell id="yRlX4yiGESKXegxQO9CW-11" value="1,99€" style="rounded=0;whiteSpace=wrap;html=1;fontFamily=Lucida Console;fontSize=14;fontColor=default;strokeColor=#FFCE9F;fillColor=#FFFFFF;strokeWidth=2;" parent="oTMHULYfvm19Lml6Ax3H-1" vertex="1">
                    <mxGeometry x="265" y="460" width="65" height="30" as="geometry"/>
                </mxCell>
                <mxCell id="yRlX4yiGESKXegxQO9CW-12" value="7,99€" style="rounded=0;whiteSpace=wrap;html=1;fontFamily=Lucida Console;fontSize=14;fontColor=default;strokeColor=#FFCE9F;fillColor=#FFFFFF;strokeWidth=2;" parent="oTMHULYfvm19Lml6Ax3H-1" vertex="1">
                    <mxGeometry x="440" y="460" width="65" height="30" as="geometry"/>
                </mxCell>
                <mxCell id="yRlX4yiGESKXegxQO9CW-13" value="3,99€" style="rounded=0;whiteSpace=wrap;html=1;fontFamily=Lucida Console;fontSize=14;fontColor=default;strokeColor=#FFCE9F;fillColor=#FFFFFF;strokeWidth=2;" parent="oTMHULYfvm19Lml6Ax3H-1" vertex="1">
                    <mxGeometry x="349" y="460" width="65" height="30" as="geometry"/>
                </mxCell>
                <mxCell id="yRlX4yiGESKXegxQO9CW-14" value="19,99€" style="rounded=0;whiteSpace=wrap;html=1;fontFamily=Lucida Console;fontSize=14;fontColor=default;strokeColor=#FFCE9F;fillColor=#FFFFFF;strokeWidth=2;" parent="oTMHULYfvm19Lml6Ax3H-1" vertex="1">
                    <mxGeometry x="265" y="610" width="65" height="30" as="geometry"/>
                </mxCell>
                <mxCell id="yRlX4yiGESKXegxQO9CW-15" value="49,99€" style="rounded=0;whiteSpace=wrap;html=1;fontFamily=Lucida Console;fontSize=14;fontColor=default;strokeColor=#FFCE9F;fillColor=#FFFFFF;strokeWidth=2;" parent="oTMHULYfvm19Lml6Ax3H-1" vertex="1">
                    <mxGeometry x="350" y="610" width="65" height="30" as="geometry"/>
                </mxCell>
                <mxCell id="yRlX4yiGESKXegxQO9CW-16" value="GRATIS" style="rounded=0;whiteSpace=wrap;html=1;fontFamily=Lucida Console;fontSize=14;fontColor=default;strokeColor=#FFCE9F;fillColor=#FFFFFF;strokeWidth=2;" parent="oTMHULYfvm19Lml6Ax3H-1" vertex="1">
                    <mxGeometry x="440" y="610" width="65" height="30" as="geometry"/>
                </mxCell>
                <mxCell id="yRlX4yiGESKXegxQO9CW-17" value="" style="shape=image;imageAspect=0;aspect=fixed;verticalLabelPosition=bottom;verticalAlign=top;rounded=0;fontFamily=Lucida Console;fontSize=14;fontColor=default;strokeColor=#000033;fillColor=#FFFFFF;html=1;image=https://www.onlygfx.com/wp-content/uploads/2020/11/stack-of-gold-coins-1.png;" parent="oTMHULYfvm19Lml6Ax3H-1" vertex="1">
                    <mxGeometry x="277.05" y="360" width="55.91" height="50" as="geometry"/>
                </mxCell>
                <mxCell id="yRlX4yiGESKXegxQO9CW-18" value="" style="shape=image;imageAspect=0;aspect=fixed;verticalLabelPosition=bottom;verticalAlign=top;rounded=0;fontFamily=Lucida Console;fontSize=14;fontColor=default;strokeColor=#000033;fillColor=#FFFFFF;html=1;image=https://www.onlygfx.com/wp-content/uploads/2020/11/stack-of-gold-coins-1.png;" parent="oTMHULYfvm19Lml6Ax3H-1" vertex="1">
                    <mxGeometry x="362.05" y="360" width="55.91" height="50" as="geometry"/>
                </mxCell>
                <mxCell id="yRlX4yiGESKXegxQO9CW-19" value="" style="shape=image;imageAspect=0;aspect=fixed;verticalLabelPosition=bottom;verticalAlign=top;rounded=0;fontFamily=Lucida Console;fontSize=14;fontColor=default;strokeColor=#000033;fillColor=#FFFFFF;html=1;image=https://www.onlygfx.com/wp-content/uploads/2020/11/stack-of-gold-coins-1.png;" parent="oTMHULYfvm19Lml6Ax3H-1" vertex="1">
                    <mxGeometry x="444.55" y="360" width="55.91" height="50" as="geometry"/>
                </mxCell>
                <mxCell id="yRlX4yiGESKXegxQO9CW-20" value="" style="shape=image;imageAspect=0;aspect=fixed;verticalLabelPosition=bottom;verticalAlign=top;rounded=0;fontFamily=Lucida Console;fontSize=14;fontColor=default;strokeColor=#000033;fillColor=#FFFFFF;html=1;image=https://www.onlygfx.com/wp-content/uploads/2020/11/stack-of-gold-coins-1.png;" parent="oTMHULYfvm19Lml6Ax3H-1" vertex="1">
                    <mxGeometry x="277.05" y="510" width="55.91" height="50" as="geometry"/>
                </mxCell>
                <mxCell id="yRlX4yiGESKXegxQO9CW-21" value="" style="shape=image;imageAspect=0;aspect=fixed;verticalLabelPosition=bottom;verticalAlign=top;rounded=0;fontFamily=Lucida Console;fontSize=14;fontColor=default;strokeColor=#000033;fillColor=#FFFFFF;html=1;image=https://www.onlygfx.com/wp-content/uploads/2020/11/stack-of-gold-coins-1.png;" parent="oTMHULYfvm19Lml6Ax3H-1" vertex="1">
                    <mxGeometry x="354.55" y="510" width="55.91" height="50" as="geometry"/>
                </mxCell>
                <mxCell id="yRlX4yiGESKXegxQO9CW-23" value="300" style="rounded=0;whiteSpace=wrap;html=1;fontFamily=Lucida Console;fontSize=14;fontColor=default;strokeColor=#000033;fillColor=#F5DEB3;" parent="oTMHULYfvm19Lml6Ax3H-1" vertex="1">
                    <mxGeometry x="280" y="420" width="50" height="30" as="geometry"/>
                </mxCell>
                <mxCell id="yRlX4yiGESKXegxQO9CW-24" value="500" style="rounded=0;whiteSpace=wrap;html=1;fontFamily=Lucida Console;fontSize=14;fontColor=default;strokeColor=#000033;fillColor=#F5DEB3;" parent="oTMHULYfvm19Lml6Ax3H-1" vertex="1">
                    <mxGeometry x="360" y="420" width="50" height="30" as="geometry"/>
                </mxCell>
                <mxCell id="yRlX4yiGESKXegxQO9CW-22" value="" style="shape=image;imageAspect=0;aspect=fixed;verticalLabelPosition=bottom;verticalAlign=top;rounded=0;fontFamily=Lucida Console;fontSize=14;fontColor=default;strokeColor=#000033;fillColor=#FFFFFF;html=1;image=https://www.onlygfx.com/wp-content/uploads/2020/11/stack-of-gold-coins-1.png;" parent="oTMHULYfvm19Lml6Ax3H-1" vertex="1">
                    <mxGeometry x="444.55" y="510" width="55.91" height="50" as="geometry"/>
                </mxCell>
                <mxCell id="yRlX4yiGESKXegxQO9CW-25" value="1000" style="rounded=0;whiteSpace=wrap;html=1;fontFamily=Lucida Console;fontSize=14;fontColor=default;strokeColor=#000033;fillColor=#F5DEB3;" parent="oTMHULYfvm19Lml6Ax3H-1" vertex="1">
                    <mxGeometry x="450.46000000000004" y="420" width="50" height="30" as="geometry"/>
                </mxCell>
                <mxCell id="yRlX4yiGESKXegxQO9CW-27" value="5000" style="rounded=0;whiteSpace=wrap;html=1;fontFamily=Lucida Console;fontSize=14;fontColor=default;strokeColor=#000033;fillColor=#F5DEB3;" parent="oTMHULYfvm19Lml6Ax3H-1" vertex="1">
                    <mxGeometry x="280" y="570" width="50" height="30" as="geometry"/>
                </mxCell>
                <mxCell id="yRlX4yiGESKXegxQO9CW-32" value="" style="sketch=0;pointerEvents=1;shadow=0;dashed=0;html=1;strokeColor=none;fillColor=#505050;labelPosition=center;verticalLabelPosition=bottom;verticalAlign=top;outlineConnect=0;align=center;shape=mxgraph.office.concepts.video_play;rounded=0;fontFamily=Lucida Console;fontSize=14;fontColor=default;" parent="oTMHULYfvm19Lml6Ax3H-1" vertex="1">
                    <mxGeometry x="485" y="500" width="35" height="30" as="geometry"/>
                </mxCell>
                <mxCell id="yRlX4yiGESKXegxQO9CW-28" value="10000" style="rounded=0;whiteSpace=wrap;html=1;fontFamily=Lucida Console;fontSize=14;fontColor=default;strokeColor=#000033;fillColor=#F5DEB3;" parent="oTMHULYfvm19Lml6Ax3H-1" vertex="1">
                    <mxGeometry x="362.05000000000007" y="570" width="50" height="30" as="geometry"/>
                </mxCell>
                <mxCell id="yRlX4yiGESKXegxQO9CW-29" value="100" style="rounded=0;whiteSpace=wrap;html=1;fontFamily=Lucida Console;fontSize=14;fontColor=default;strokeColor=#000033;fillColor=#F5DEB3;" parent="oTMHULYfvm19Lml6Ax3H-1" vertex="1">
                    <mxGeometry x="455.0000000000001" y="570" width="50" height="30" as="geometry"/>
                </mxCell>
                <mxCell id="yRlX4yiGESKXegxQO9CW-33" value="" style="verticalLabelPosition=bottom;shadow=0;dashed=0;align=center;html=1;verticalAlign=top;strokeWidth=1;shape=mxgraph.mockup.misc.rating;strokeColor=#999999;fillColor=#ffff00;emptyFillColor=#ffffff;grade=4;ratingScale=5;ratingStyle=star;rounded=0;fontFamily=Lucida Console;fontSize=14;fontColor=default;" parent="oTMHULYfvm19Lml6Ax3H-1" vertex="1">
                    <mxGeometry x="280" y="720" width="225" height="30" as="geometry"/>
                </mxCell>
                <mxCell id="yRlX4yiGESKXegxQO9CW-34" value="COSA NE PENSI? LASCIA UNA RECENSIONE :)" style="text;html=1;strokeColor=none;fillColor=none;align=center;verticalAlign=middle;whiteSpace=wrap;rounded=0;fontFamily=Lucida Console;fontSize=14;fontColor=default;" parent="oTMHULYfvm19Lml6Ax3H-1" vertex="1">
                    <mxGeometry x="320" y="690" width="145" height="10" as="geometry"/>
                </mxCell>
                <mxCell id="38wRGnI8Tx5UJokwquCd-0" value="" style="html=1;verticalLabelPosition=bottom;align=center;labelBackgroundColor=#ffffff;verticalAlign=top;strokeWidth=2;strokeColor=#000033;shadow=0;dashed=0;shape=mxgraph.ios7.icons.back;fontFamily=Lucida Console;fontSize=18;fillColor=#190033;" parent="oTMHULYfvm19Lml6Ax3H-1" vertex="1">
                    <mxGeometry x="250" y="275" width="30" height="25.5" as="geometry"/>
                </mxCell>
                <mxCell id="bKu4OTbdr23ME5Wjhxpw-0" value="&lt;span style=&quot;color: rgb(0 , 0 , 0) ; font-family: &amp;#34;lucida console&amp;#34; ; font-size: 18px ; font-style: normal ; font-weight: 400 ; letter-spacing: normal ; text-align: center ; text-indent: 0px ; text-transform: none ; word-spacing: 0px ; display: inline ; float: none ; background-color: rgb(217 , 217 , 217)&quot;&gt;NEGOZIO&lt;/span&gt;" style="text;whiteSpace=wrap;html=1;fontSize=14;fontFamily=Lucida Console;fontColor=default;" parent="oTMHULYfvm19Lml6Ax3H-1" vertex="1">
                    <mxGeometry x="345" y="310" width="160" height="30" as="geometry"/>
                </mxCell>
            </root>
        </mxGraphModel>
    </diagram>
    <diagram id="2WTa2OK0Qa6ezDo-6TT6" name="Single Player (avvio)">
        <mxGraphModel dx="469" dy="192" grid="1" gridSize="10" guides="1" tooltips="1" connect="1" arrows="1" fold="1" page="1" pageScale="1" pageWidth="827" pageHeight="1169" math="0" shadow="0">
            <root>
                <mxCell id="YkVst8tW5tIhFZhUgUVz-0"/>
                <mxCell id="YkVst8tW5tIhFZhUgUVz-1" parent="YkVst8tW5tIhFZhUgUVz-0"/>
                <mxCell id="YkVst8tW5tIhFZhUgUVz-4" value="" style="rounded=0;whiteSpace=wrap;html=1;shadow=0;labelBackgroundColor=#D9D9D9;sketch=0;fontFamily=Lucida Console;fontSize=12;fontColor=default;strokeColor=none;strokeWidth=2;fillColor=#D9D9D9;gradientColor=none;gradientDirection=north;" parent="YkVst8tW5tIhFZhUgUVz-1" vertex="1">
                    <mxGeometry x="300" y="165" width="290" height="520" as="geometry"/>
                </mxCell>
                <mxCell id="YkVst8tW5tIhFZhUgUVz-2" value="" style="verticalLabelPosition=bottom;verticalAlign=top;html=1;shadow=0;dashed=0;strokeWidth=1;shape=mxgraph.android.phone2;strokeColor=#c0c0c0;rounded=0;labelBackgroundColor=#D9D9D9;sketch=0;fontFamily=Lucida Console;fontSize=12;fontColor=default;fillColor=#FFFFFF;gradientColor=none;gradientDirection=north;" parent="YkVst8tW5tIhFZhUgUVz-1" vertex="1">
                    <mxGeometry x="300" y="120" width="310" height="610" as="geometry"/>
                </mxCell>
                <mxCell id="LfU9_sqAOVVED2N9ePPs-0" value="&lt;span style=&quot;color: rgb(0, 0, 0); font-family: &amp;quot;lucida console&amp;quot;; font-size: 22px; font-style: normal; font-weight: 400; letter-spacing: normal; text-align: center; text-indent: 0px; text-transform: none; word-spacing: 0px; display: inline; float: none;&quot;&gt;SINGLE PLAYER&lt;/span&gt;" style="text;whiteSpace=wrap;html=1;fontSize=12;fontFamily=Lucida Console;fontColor=default;labelBackgroundColor=#D9D9D9;" parent="YkVst8tW5tIhFZhUgUVz-1" vertex="1">
                    <mxGeometry x="370" y="220" width="200" height="30" as="geometry"/>
                </mxCell>
                <mxCell id="66EZ4L_50yNPBXJ2QPIj-0" value="" style="rounded=0;whiteSpace=wrap;html=1;shadow=0;labelBackgroundColor=#FFFFFF;sketch=0;fontFamily=Lucida Console;fontSize=12;fontColor=default;strokeColor=#6666FF;strokeWidth=3;fillColor=#FFFFFF;gradientColor=none;gradientDirection=north;" parent="YkVst8tW5tIhFZhUgUVz-1" vertex="1">
                    <mxGeometry x="396" y="270" width="125" height="50" as="geometry"/>
                </mxCell>
                <mxCell id="66EZ4L_50yNPBXJ2QPIj-1" value="&lt;font style=&quot;font-size: 14px&quot;&gt;MEDIO&lt;/font&gt;" style="rounded=0;whiteSpace=wrap;html=1;shadow=0;labelBackgroundColor=#FFFFFF;sketch=0;fontFamily=Lucida Console;fontSize=12;fontColor=default;strokeColor=default;strokeWidth=1;fillColor=#FFFFFF;gradientColor=none;gradientDirection=north;" parent="YkVst8tW5tIhFZhUgUVz-1" vertex="1">
                    <mxGeometry x="396" y="320" width="125" height="50" as="geometry"/>
                </mxCell>
                <mxCell id="66EZ4L_50yNPBXJ2QPIj-2" value="" style="rounded=0;whiteSpace=wrap;html=1;shadow=0;labelBackgroundColor=#FFFFFF;sketch=0;fontFamily=Lucida Console;fontSize=12;fontColor=default;strokeColor=default;strokeWidth=1;fillColor=#FFFFFF;gradientColor=none;gradientDirection=north;" parent="YkVst8tW5tIhFZhUgUVz-1" vertex="1">
                    <mxGeometry x="396.5" y="370" width="125" height="50" as="geometry"/>
                </mxCell>
                <mxCell id="66EZ4L_50yNPBXJ2QPIj-3" value="&lt;font style=&quot;font-size: 14px&quot;&gt;FACILE&lt;/font&gt;" style="text;html=1;strokeColor=none;fillColor=none;align=center;verticalAlign=middle;whiteSpace=wrap;rounded=0;shadow=0;labelBackgroundColor=#FFFFFF;sketch=0;fontFamily=Lucida Console;fontSize=12;fontColor=default;" parent="YkVst8tW5tIhFZhUgUVz-1" vertex="1">
                    <mxGeometry x="425" y="280" width="60" height="30" as="geometry"/>
                </mxCell>
                <mxCell id="66EZ4L_50yNPBXJ2QPIj-4" value="&lt;span style=&quot;color: rgb(0 , 0 , 0) ; font-family: &amp;#34;lucida console&amp;#34; ; font-size: 14px ; font-style: normal ; font-weight: 400 ; letter-spacing: normal ; text-align: center ; text-indent: 0px ; text-transform: none ; word-spacing: 0px ; background-color: rgb(255 , 255 , 255) ; display: inline ; float: none&quot;&gt;DIFFICILE&lt;/span&gt;" style="text;whiteSpace=wrap;html=1;fontSize=14;fontFamily=Lucida Console;fontColor=default;" parent="YkVst8tW5tIhFZhUgUVz-1" vertex="1">
                    <mxGeometry x="414" y="380" width="80" height="30" as="geometry"/>
                </mxCell>
                <mxCell id="3vMEL4DDqepSYdeVl4Y9-0" value="" style="html=1;verticalLabelPosition=bottom;align=center;labelBackgroundColor=#ffffff;verticalAlign=top;strokeWidth=2;strokeColor=#000033;shadow=0;dashed=0;shape=mxgraph.ios7.icons.back;fontFamily=Lucida Console;fontSize=18;fillColor=#190033;" parent="YkVst8tW5tIhFZhUgUVz-1" vertex="1">
                    <mxGeometry x="320" y="180" width="30" height="25.5" as="geometry"/>
                </mxCell>
                <mxCell id="f3yQ3izgOchbdvsEg_-f-0" value="" style="rounded=0;whiteSpace=wrap;html=1;shadow=0;labelBackgroundColor=#FFFFFF;sketch=0;fontFamily=Lucida Console;fontSize=14;fontColor=default;strokeColor=default;strokeWidth=1;fillColor=#FFFFFF;gradientColor=none;gradientDirection=north;" parent="YkVst8tW5tIhFZhUgUVz-1" vertex="1">
                    <mxGeometry x="480" y="527" width="70" height="35" as="geometry"/>
                </mxCell>
                <mxCell id="f3yQ3izgOchbdvsEg_-f-1" value="COINS DA SCOMMETTERE:" style="text;html=1;strokeColor=none;fillColor=none;align=center;verticalAlign=middle;whiteSpace=wrap;rounded=0;shadow=0;labelBackgroundColor=#D9D9D9;sketch=0;fontFamily=Lucida Console;fontSize=14;fontColor=default;" parent="YkVst8tW5tIhFZhUgUVz-1" vertex="1">
                    <mxGeometry x="370" y="531" width="85" height="27" as="geometry"/>
                </mxCell>
                <mxCell id="EVzk8qJ0xcBjsasv6vC5-0" value="" style="ellipse;whiteSpace=wrap;html=1;aspect=fixed;rounded=0;shadow=0;labelBackgroundColor=#FFFFFF;sketch=0;fontFamily=Lucida Console;fontSize=14;fontColor=default;strokeColor=default;strokeWidth=1;fillColor=#FFFFFF;gradientColor=none;gradientDirection=north;" parent="YkVst8tW5tIhFZhUgUVz-1" vertex="1">
                    <mxGeometry x="395.5" y="440" width="60" height="60" as="geometry"/>
                </mxCell>
                <mxCell id="EVzk8qJ0xcBjsasv6vC5-1" value="" style="ellipse;whiteSpace=wrap;html=1;aspect=fixed;rounded=0;shadow=0;labelBackgroundColor=#FFFFFF;sketch=0;fontFamily=Lucida Console;fontSize=14;fontColor=default;strokeColor=#3333FF;strokeWidth=3;fillColor=#FFFFFF;gradientColor=none;gradientDirection=north;" parent="YkVst8tW5tIhFZhUgUVz-1" vertex="1">
                    <mxGeometry x="459" y="438" width="62" height="62" as="geometry"/>
                </mxCell>
                <mxCell id="EVzk8qJ0xcBjsasv6vC5-8" value="" style="ellipse;whiteSpace=wrap;html=1;aspect=fixed;rounded=0;shadow=1;labelBackgroundColor=#FFFFFF;sketch=0;fontFamily=Lucida Console;fontSize=14;fontColor=default;strokeColor=#190033;strokeWidth=1;fillColor=#1A1A1A;gradientColor=none;gradientDirection=north;" parent="YkVst8tW5tIhFZhUgUVz-1" vertex="1">
                    <mxGeometry x="408" y="452.5" width="35" height="35" as="geometry"/>
                </mxCell>
                <mxCell id="uZ5jyU3pRj_KWhLcCQi1-0" value="" style="line;strokeWidth=2;html=1;rounded=0;labelBackgroundColor=#D9D9D9;fontFamily=Lucida Console;fontSize=14;fontColor=default;fillColor=#1A1A1A;rotation=45;shadow=1;" parent="YkVst8tW5tIhFZhUgUVz-1" vertex="1">
                    <mxGeometry x="467.75" y="465" width="44.5" height="10" as="geometry"/>
                </mxCell>
                <mxCell id="uZ5jyU3pRj_KWhLcCQi1-1" value="" style="line;strokeWidth=2;html=1;rounded=0;labelBackgroundColor=#D9D9D9;fontFamily=Lucida Console;fontSize=14;fontColor=default;fillColor=#1A1A1A;rotation=-45;shadow=1;" parent="YkVst8tW5tIhFZhUgUVz-1" vertex="1">
                    <mxGeometry x="467.75" y="454" width="44.5" height="30" as="geometry"/>
                </mxCell>
                <mxCell id="mTE7rowDb6k5Q01Ia5Rp-0" value="Button" style="labelPosition=center;verticalLabelPosition=middle;align=center;html=1;shape=mxgraph.basic.shaded_button;dx=10;fillColor=#F0F0F0;strokeColor=default;strokeWidth=2;" parent="YkVst8tW5tIhFZhUgUVz-1" vertex="1">
                    <mxGeometry x="404" y="600" width="100" height="60" as="geometry"/>
                </mxCell>
                <mxCell id="uZ5jyU3pRj_KWhLcCQi1-3" value="&lt;font style=&quot;font-size: 18px&quot;&gt;&lt;b&gt;AVVIA&lt;/b&gt;&lt;/font&gt;" style="text;html=1;strokeColor=none;fillColor=none;align=center;verticalAlign=middle;whiteSpace=wrap;rounded=0;shadow=0;labelBackgroundColor=#EBEBEB;sketch=0;fontFamily=Lucida Console;fontSize=14;fontColor=default;" parent="YkVst8tW5tIhFZhUgUVz-1" vertex="1">
                    <mxGeometry x="425" y="615" width="60" height="30" as="geometry"/>
                </mxCell>
            </root>
        </mxGraphModel>
    </diagram>
    <diagram id="Rxf6q5WrvsBVPuSPT0DO" name="Single Player">
        <mxGraphModel dx="960" dy="753" grid="1" gridSize="10" guides="1" tooltips="1" connect="1" arrows="1" fold="1" page="1" pageScale="1" pageWidth="827" pageHeight="1169" math="0" shadow="0">
            <root>
                <mxCell id="jXObt6eNcwSP2HETIAQ9-0"/>
                <mxCell id="jXObt6eNcwSP2HETIAQ9-1" parent="jXObt6eNcwSP2HETIAQ9-0"/>
                <mxCell id="XH3XNGNYxMqFV5vkr_Kr-1" value="" style="rounded=0;whiteSpace=wrap;html=1;labelBackgroundColor=#D9D9D9;fontFamily=Lucida Console;fontSize=14;fontColor=default;strokeColor=#000033;fillColor=#D9D9D9;" parent="jXObt6eNcwSP2HETIAQ9-1" vertex="1">
                    <mxGeometry x="260" y="170" width="290" height="520" as="geometry"/>
                </mxCell>
                <mxCell id="XH3XNGNYxMqFV5vkr_Kr-0" value="" style="verticalLabelPosition=bottom;verticalAlign=top;html=1;shadow=0;dashed=0;strokeWidth=1;shape=mxgraph.android.phone2;strokeColor=#c0c0c0;rounded=0;labelBackgroundColor=#D9D9D9;fontFamily=Lucida Console;fontSize=14;fontColor=default;fillColor=#FFFFFF;" parent="jXObt6eNcwSP2HETIAQ9-1" vertex="1">
                    <mxGeometry x="250" y="120" width="310" height="610" as="geometry"/>
                </mxCell>
                <mxCell id="8ty1kMgTLilNXB1m5Akq-4" value="" style="line;strokeWidth=2;html=1;rounded=0;labelBackgroundColor=#D9D9D9;fontFamily=Lucida Console;fontSize=14;fontColor=default;fillColor=#D9D9D9;shadow=1;" parent="jXObt6eNcwSP2HETIAQ9-1" vertex="1">
                    <mxGeometry x="300" y="380" width="210" height="10" as="geometry"/>
                </mxCell>
                <mxCell id="8ty1kMgTLilNXB1m5Akq-5" value="" style="line;strokeWidth=2;html=1;rounded=0;labelBackgroundColor=#D9D9D9;fontFamily=Lucida Console;fontSize=14;fontColor=default;fillColor=#D9D9D9;shadow=1;" parent="jXObt6eNcwSP2HETIAQ9-1" vertex="1">
                    <mxGeometry x="300" y="460" width="210" height="10" as="geometry"/>
                </mxCell>
                <mxCell id="8ty1kMgTLilNXB1m5Akq-6" value="" style="line;strokeWidth=2;html=1;rounded=0;labelBackgroundColor=#D9D9D9;fontFamily=Lucida Console;fontSize=14;fontColor=default;fillColor=#D9D9D9;rotation=-90;gradientColor=none;gradientDirection=north;shadow=1;" parent="jXObt6eNcwSP2HETIAQ9-1" vertex="1">
                    <mxGeometry x="260" y="425" width="210" height="10" as="geometry"/>
                </mxCell>
                <mxCell id="8ty1kMgTLilNXB1m5Akq-7" value="" style="line;strokeWidth=2;html=1;rounded=0;labelBackgroundColor=#D9D9D9;fontFamily=Lucida Console;fontSize=14;fontColor=default;fillColor=#D9D9D9;rotation=-90;shadow=1;" parent="jXObt6eNcwSP2HETIAQ9-1" vertex="1">
                    <mxGeometry x="340" y="425" width="210" height="10" as="geometry"/>
                </mxCell>
                <mxCell id="gOwmt-yRfyi5rFVjkmY7-0" value="" style="strokeWidth=2;html=1;shape=mxgraph.flowchart.start_2;whiteSpace=wrap;rounded=0;labelBackgroundColor=#D9D9D9;fontFamily=Lucida Console;fontSize=14;fontColor=default;fillColor=#1A1A1A;shadow=1;" parent="jXObt6eNcwSP2HETIAQ9-1" vertex="1">
                    <mxGeometry x="300" y="320" width="50" height="50" as="geometry"/>
                </mxCell>
                <mxCell id="gOwmt-yRfyi5rFVjkmY7-1" value="" style="strokeWidth=2;html=1;shape=mxgraph.flowchart.start_2;whiteSpace=wrap;rounded=0;labelBackgroundColor=#D9D9D9;fontFamily=Lucida Console;fontSize=14;fontColor=default;fillColor=#1A1A1A;shadow=1;" parent="jXObt6eNcwSP2HETIAQ9-1" vertex="1">
                    <mxGeometry x="300" y="480" width="50" height="50" as="geometry"/>
                </mxCell>
                <mxCell id="gOwmt-yRfyi5rFVjkmY7-2" value="" style="strokeWidth=2;html=1;shape=mxgraph.flowchart.start_2;whiteSpace=wrap;rounded=0;labelBackgroundColor=#D9D9D9;fontFamily=Lucida Console;fontSize=14;fontColor=default;fillColor=#1A1A1A;shadow=1;" parent="jXObt6eNcwSP2HETIAQ9-1" vertex="1">
                    <mxGeometry x="460" y="400" width="50" height="50" as="geometry"/>
                </mxCell>
                <mxCell id="gOwmt-yRfyi5rFVjkmY7-6" value="" style="line;strokeWidth=2;html=1;rounded=0;labelBackgroundColor=#D9D9D9;fontFamily=Lucida Console;fontSize=14;fontColor=default;fillColor=#1A1A1A;rotation=45;shadow=1;" parent="jXObt6eNcwSP2HETIAQ9-1" vertex="1">
                    <mxGeometry x="290" y="420" width="60" height="10" as="geometry"/>
                </mxCell>
                <mxCell id="gOwmt-yRfyi5rFVjkmY7-8" value="" style="line;strokeWidth=2;html=1;rounded=0;labelBackgroundColor=#D9D9D9;fontFamily=Lucida Console;fontSize=14;fontColor=default;fillColor=#1A1A1A;rotation=-45;shadow=1;" parent="jXObt6eNcwSP2HETIAQ9-1" vertex="1">
                    <mxGeometry x="290" y="420" width="60" height="10" as="geometry"/>
                </mxCell>
                <mxCell id="gOwmt-yRfyi5rFVjkmY7-9" value="" style="line;strokeWidth=2;html=1;rounded=0;labelBackgroundColor=#D9D9D9;fontFamily=Lucida Console;fontSize=14;fontColor=default;fillColor=#1A1A1A;rotation=45;shadow=1;sketch=0;" parent="jXObt6eNcwSP2HETIAQ9-1" vertex="1">
                    <mxGeometry x="375" y="350" width="60" height="10" as="geometry"/>
                </mxCell>
                <mxCell id="gOwmt-yRfyi5rFVjkmY7-10" value="" style="line;strokeWidth=2;html=1;rounded=0;labelBackgroundColor=#D9D9D9;fontFamily=Lucida Console;fontSize=14;fontColor=default;fillColor=#1A1A1A;rotation=-45;shadow=1;" parent="jXObt6eNcwSP2HETIAQ9-1" vertex="1">
                    <mxGeometry x="375" y="350" width="60" height="10" as="geometry"/>
                </mxCell>
                <mxCell id="gOwmt-yRfyi5rFVjkmY7-11" value="" style="line;strokeWidth=2;html=1;rounded=0;labelBackgroundColor=#D9D9D9;fontFamily=Lucida Console;fontSize=14;fontColor=default;fillColor=#1A1A1A;rotation=45;" parent="jXObt6eNcwSP2HETIAQ9-1" vertex="1">
                    <mxGeometry x="375" y="425" width="60" height="10" as="geometry"/>
                </mxCell>
                <mxCell id="gOwmt-yRfyi5rFVjkmY7-12" value="" style="line;strokeWidth=2;html=1;rounded=0;labelBackgroundColor=#D9D9D9;fontFamily=Lucida Console;fontSize=14;fontColor=default;fillColor=#1A1A1A;rotation=-45;" parent="jXObt6eNcwSP2HETIAQ9-1" vertex="1">
                    <mxGeometry x="375" y="425" width="60" height="10" as="geometry"/>
                </mxCell>
                <mxCell id="gOwmt-yRfyi5rFVjkmY7-16" value="" style="line;strokeWidth=2;html=1;rounded=0;labelBackgroundColor=#D9D9D9;fontFamily=Lucida Console;fontSize=14;fontColor=default;fillColor=#1A1A1A;rotation=45;" parent="jXObt6eNcwSP2HETIAQ9-1" vertex="1">
                    <mxGeometry x="375" y="500" width="60" height="10" as="geometry"/>
                </mxCell>
                <mxCell id="gOwmt-yRfyi5rFVjkmY7-17" value="" style="line;strokeWidth=2;html=1;rounded=0;labelBackgroundColor=#D9D9D9;fontFamily=Lucida Console;fontSize=14;fontColor=default;fillColor=#1A1A1A;rotation=-45;" parent="jXObt6eNcwSP2HETIAQ9-1" vertex="1">
                    <mxGeometry x="375" y="500" width="60" height="10" as="geometry"/>
                </mxCell>
                <mxCell id="gOwmt-yRfyi5rFVjkmY7-18" value="" style="line;strokeWidth=2;html=1;rounded=0;labelBackgroundColor=#D9D9D9;fontFamily=Lucida Console;fontSize=14;fontColor=default;fillColor=#1A1A1A;rotation=-90;shadow=1;" parent="jXObt6eNcwSP2HETIAQ9-1" vertex="1">
                    <mxGeometry x="305" y="425" width="200" height="10" as="geometry"/>
                </mxCell>
                <mxCell id="6390c0XwaDH-unnMhyF_-1" value="" style="ellipse;fillColor=#000000;strokeColor=#000000;rounded=0;labelBackgroundColor=#D9D9D9;fontFamily=Lucida Console;fontSize=18;fontColor=default;html=1;" parent="jXObt6eNcwSP2HETIAQ9-1" vertex="1">
                    <mxGeometry x="340" y="250" width="10" height="10" as="geometry"/>
                </mxCell>
                <mxCell id="6390c0XwaDH-unnMhyF_-3" value="" style="ellipse;fillColor=#ffffff;strokeColor=#000000;rounded=0;labelBackgroundColor=#D9D9D9;fontFamily=Lucida Console;fontSize=18;fontColor=default;html=1;" parent="jXObt6eNcwSP2HETIAQ9-1" vertex="1">
                    <mxGeometry x="360" y="250" width="10" height="10" as="geometry"/>
                </mxCell>
                <mxCell id="6390c0XwaDH-unnMhyF_-6" value="" style="ellipse;fillColor=#ffffff;strokeColor=#000000;rounded=0;labelBackgroundColor=#D9D9D9;fontFamily=Lucida Console;fontSize=18;fontColor=default;html=1;" parent="jXObt6eNcwSP2HETIAQ9-1" vertex="1">
                    <mxGeometry x="380" y="250" width="10" height="10" as="geometry"/>
                </mxCell>
                <mxCell id="FC_9eifUmhMJKUhp0zBT-0" value="" style="line;strokeWidth=2;html=1;rounded=0;labelBackgroundColor=#D9D9D9;fontFamily=Lucida Console;fontSize=18;fontColor=default;fillColor=#1A1A1A;" parent="jXObt6eNcwSP2HETIAQ9-1" vertex="1">
                    <mxGeometry x="397.5" y="250" width="15" height="10" as="geometry"/>
                </mxCell>
                <mxCell id="FC_9eifUmhMJKUhp0zBT-1" value="" style="ellipse;fillColor=#ffffff;strokeColor=#000000;rounded=0;labelBackgroundColor=#D9D9D9;fontFamily=Lucida Console;fontSize=18;fontColor=default;html=1;" parent="jXObt6eNcwSP2HETIAQ9-1" vertex="1">
                    <mxGeometry x="420" y="250" width="10" height="10" as="geometry"/>
                </mxCell>
                <mxCell id="FC_9eifUmhMJKUhp0zBT-2" value="" style="ellipse;fillColor=#ffffff;strokeColor=#000000;rounded=0;labelBackgroundColor=#D9D9D9;fontFamily=Lucida Console;fontSize=18;fontColor=default;html=1;" parent="jXObt6eNcwSP2HETIAQ9-1" vertex="1">
                    <mxGeometry x="440" y="250" width="10" height="10" as="geometry"/>
                </mxCell>
                <mxCell id="FC_9eifUmhMJKUhp0zBT-3" value="" style="ellipse;fillColor=#ffffff;strokeColor=#000000;rounded=0;labelBackgroundColor=#D9D9D9;fontFamily=Lucida Console;fontSize=18;fontColor=default;html=1;" parent="jXObt6eNcwSP2HETIAQ9-1" vertex="1">
                    <mxGeometry x="460" y="250" width="10" height="10" as="geometry"/>
                </mxCell>
                <mxCell id="FC_9eifUmhMJKUhp0zBT-5" value="" style="pointerEvents=1;shadow=0;dashed=0;html=1;strokeColor=none;fillColor=#190033;labelPosition=center;verticalLabelPosition=bottom;verticalAlign=top;align=center;outlineConnect=0;shape=mxgraph.veeam.cpu;rounded=0;labelBackgroundColor=#D9D9D9;fontFamily=Lucida Console;fontSize=18;fontColor=default;" parent="jXObt6eNcwSP2HETIAQ9-1" vertex="1">
                    <mxGeometry x="478" y="243" width="27" height="24" as="geometry"/>
                </mxCell>
                <mxCell id="FC_9eifUmhMJKUhp0zBT-6" value="" style="sketch=0;outlineConnect=0;fontColor=#232F3E;gradientColor=none;fillColor=#232F3D;strokeColor=none;dashed=0;verticalLabelPosition=bottom;verticalAlign=top;align=center;html=1;fontSize=12;fontStyle=0;aspect=fixed;pointerEvents=1;shape=mxgraph.aws4.user;rounded=0;labelBackgroundColor=#D9D9D9;fontFamily=Lucida Console;shadow=0;" parent="jXObt6eNcwSP2HETIAQ9-1" vertex="1">
                    <mxGeometry x="300" y="243" width="23" height="23" as="geometry"/>
                </mxCell>
                <mxCell id="RB_uG1qKcxk5B3oRGdMW-0" value="" style="shape=image;html=1;verticalAlign=top;verticalLabelPosition=bottom;labelBackgroundColor=#ffffff;imageAspect=0;aspect=fixed;image=https://cdn4.iconfinder.com/data/icons/evil-icons-user-interface/64/menu-128.png;fontFamily=Lucida Console;fontSize=22;" parent="jXObt6eNcwSP2HETIAQ9-1" vertex="1">
                    <mxGeometry x="510" y="180" width="30" height="30" as="geometry"/>
                </mxCell>
                <mxCell id="RB_uG1qKcxk5B3oRGdMW-1" value="" style="sketch=0;pointerEvents=1;shadow=0;dashed=0;html=1;strokeColor=none;fillColor=#505050;labelPosition=center;verticalLabelPosition=bottom;verticalAlign=top;outlineConnect=0;align=center;shape=mxgraph.office.concepts.home;rounded=0;labelBackgroundColor=#D9D9D9;fontFamily=Lucida Console;fontSize=18;fontColor=default;" parent="jXObt6eNcwSP2HETIAQ9-1" vertex="1">
                    <mxGeometry x="272" y="180" width="33" height="30" as="geometry"/>
                </mxCell>
                <mxCell id="wj_QgiTn6ft4PjtW0p2K-3" value="200 COINS" style="text;html=1;strokeColor=none;fillColor=#D9D9D9;align=center;verticalAlign=middle;whiteSpace=wrap;rounded=0;shadow=0;labelBackgroundColor=#D9D9D9;sketch=0;fontFamily=Lucida Console;fontSize=14;fontColor=default;" parent="jXObt6eNcwSP2HETIAQ9-1" vertex="1">
                    <mxGeometry x="384" y="580" width="60" height="30" as="geometry"/>
                </mxCell>
                <mxCell id="61cz_yDIbYAS8OY-p_Gt-2" value="" style="shape=image;imageAspect=0;aspect=fixed;verticalLabelPosition=bottom;verticalAlign=top;labelBackgroundColor=#EBEBEB;strokeColor=default;strokeWidth=2;fillColor=#F0F0F0;image=https://image.flaticon.com/icons/png/512/47/47902.png;" parent="jXObt6eNcwSP2HETIAQ9-1" vertex="1">
                    <mxGeometry x="440" y="577.5" width="35" height="35" as="geometry"/>
                </mxCell>
                <mxCell id="61cz_yDIbYAS8OY-p_Gt-3" value="" style="shape=image;imageAspect=0;aspect=fixed;verticalLabelPosition=bottom;verticalAlign=top;labelBackgroundColor=#EBEBEB;strokeColor=default;strokeWidth=2;fillColor=#F0F0F0;image=https://image.flaticon.com/icons/png/512/47/47902.png;" parent="jXObt6eNcwSP2HETIAQ9-1" vertex="1">
                    <mxGeometry x="355" y="577.5" width="35" height="35" as="geometry"/>
                </mxCell>
                <mxCell id="IpPwolLaXZBRZ3vSe5sI-0" value="header" style="rounded=0;whiteSpace=wrap;html=1;fillColor=none;fontSize=30;fontColor=#6666FF;" vertex="1" parent="jXObt6eNcwSP2HETIAQ9-1">
                    <mxGeometry x="260" y="170" width="290" height="60" as="geometry"/>
                </mxCell>
                <mxCell id="IpPwolLaXZBRZ3vSe5sI-1" value="div#punteggio" style="rounded=0;whiteSpace=wrap;html=1;fillColor=none;fontSize=30;fontColor=#6666FF;" vertex="1" parent="jXObt6eNcwSP2HETIAQ9-1">
                    <mxGeometry x="260" y="225" width="290" height="60" as="geometry"/>
                </mxCell>
                <mxCell id="IpPwolLaXZBRZ3vSe5sI-2" value="div#grid" style="rounded=0;whiteSpace=wrap;html=1;fillColor=none;fontSize=30;fontColor=#6666FF;" vertex="1" parent="jXObt6eNcwSP2HETIAQ9-1">
                    <mxGeometry x="260" y="290" width="290" height="270" as="geometry"/>
                </mxCell>
                <mxCell id="IpPwolLaXZBRZ3vSe5sI-3" value="div#coins" style="rounded=0;whiteSpace=wrap;html=1;fillColor=none;fontSize=30;fontColor=#6666FF;" vertex="1" parent="jXObt6eNcwSP2HETIAQ9-1">
                    <mxGeometry x="260" y="570" width="290" height="60" as="geometry"/>
                </mxCell>
            </root>
        </mxGraphModel>
    </diagram>
    <diagram id="cHHaAjRDicljsvNFnhej" name="Multi Player (Avvio)">
        <mxGraphModel dx="1102" dy="865" grid="1" gridSize="10" guides="1" tooltips="1" connect="1" arrows="1" fold="1" page="1" pageScale="1" pageWidth="827" pageHeight="1169" math="0" shadow="0">
            <root>
                <mxCell id="-K8ZlTlJRHVsNPDddoGD-0"/>
                <mxCell id="-K8ZlTlJRHVsNPDddoGD-1" parent="-K8ZlTlJRHVsNPDddoGD-0"/>
                <mxCell id="WwHL48S9OT2AeJWCh2PT-0" value="" style="rounded=0;whiteSpace=wrap;html=1;shadow=0;labelBackgroundColor=#D9D9D9;sketch=0;fontFamily=Lucida Console;fontSize=12;fontColor=default;strokeColor=none;strokeWidth=2;fillColor=#D9D9D9;gradientColor=none;gradientDirection=north;" parent="-K8ZlTlJRHVsNPDddoGD-1" vertex="1">
                    <mxGeometry x="310" y="170" width="290" height="520" as="geometry"/>
                </mxCell>
                <mxCell id="WwHL48S9OT2AeJWCh2PT-1" value="" style="verticalLabelPosition=bottom;verticalAlign=top;html=1;shadow=0;dashed=0;strokeWidth=1;shape=mxgraph.android.phone2;strokeColor=#c0c0c0;rounded=0;labelBackgroundColor=#D9D9D9;sketch=0;fontFamily=Lucida Console;fontSize=12;fontColor=default;fillColor=#FFFFFF;gradientColor=none;gradientDirection=north;" parent="-K8ZlTlJRHVsNPDddoGD-1" vertex="1">
                    <mxGeometry x="300" y="120" width="310" height="610" as="geometry"/>
                </mxCell>
                <mxCell id="WwHL48S9OT2AeJWCh2PT-2" value="&lt;span style=&quot;color: rgb(0 , 0 , 0) ; font-family: &amp;#34;lucida console&amp;#34; ; font-size: 22px ; font-style: normal ; font-weight: 400 ; letter-spacing: normal ; text-indent: 0px ; text-transform: none ; word-spacing: 0px ; display: inline ; float: none&quot;&gt;MULTI PLAYER&lt;/span&gt;" style="text;whiteSpace=wrap;html=1;fontSize=12;fontFamily=Lucida Console;fontColor=default;labelBackgroundColor=#D9D9D9;align=center;" parent="-K8ZlTlJRHVsNPDddoGD-1" vertex="1">
                    <mxGeometry x="354" y="230" width="200" height="30" as="geometry"/>
                </mxCell>
                <mxCell id="WwHL48S9OT2AeJWCh2PT-8" value="" style="html=1;verticalLabelPosition=bottom;align=center;labelBackgroundColor=#ffffff;verticalAlign=top;strokeWidth=2;strokeColor=#000033;shadow=0;dashed=0;shape=mxgraph.ios7.icons.back;fontFamily=Lucida Console;fontSize=18;fillColor=#190033;" parent="-K8ZlTlJRHVsNPDddoGD-1" vertex="1">
                    <mxGeometry x="320" y="180" width="30" height="25.5" as="geometry"/>
                </mxCell>
                <mxCell id="cgvGw8wCGhX5Zy1fIUDP-0" value="" style="rounded=0;whiteSpace=wrap;html=1;fontFamily=Lucida Console;fontSize=18;" vertex="1" parent="-K8ZlTlJRHVsNPDddoGD-1">
                    <mxGeometry x="340" y="300" width="230" height="60" as="geometry"/>
                </mxCell>
                <mxCell id="cgvGw8wCGhX5Zy1fIUDP-1" value="" style="rounded=0;whiteSpace=wrap;html=1;fontFamily=Lucida Console;fontSize=18;" vertex="1" parent="-K8ZlTlJRHVsNPDddoGD-1">
                    <mxGeometry x="340" y="360" width="230" height="60" as="geometry"/>
                </mxCell>
                <mxCell id="cgvGw8wCGhX5Zy1fIUDP-2" value="" style="rounded=0;whiteSpace=wrap;html=1;fontFamily=Lucida Console;fontSize=18;" vertex="1" parent="-K8ZlTlJRHVsNPDddoGD-1">
                    <mxGeometry x="340" y="420" width="230" height="60" as="geometry"/>
                </mxCell>
                <mxCell id="cgvGw8wCGhX5Zy1fIUDP-3" value="" style="verticalLabelPosition=bottom;verticalAlign=top;html=1;shadow=0;dashed=0;strokeWidth=1;shape=mxgraph.android.contact_badge_normal;sketch=0;fontFamily=Lucida Console;fontSize=18;" vertex="1" parent="-K8ZlTlJRHVsNPDddoGD-1">
                    <mxGeometry x="340" y="300" width="60" height="60" as="geometry"/>
                </mxCell>
                <mxCell id="cgvGw8wCGhX5Zy1fIUDP-4" value="" style="verticalLabelPosition=bottom;verticalAlign=top;html=1;shadow=0;dashed=0;strokeWidth=1;shape=mxgraph.android.contact_badge_normal;sketch=0;fontFamily=Lucida Console;fontSize=18;" vertex="1" parent="-K8ZlTlJRHVsNPDddoGD-1">
                    <mxGeometry x="340" y="360" width="60" height="60" as="geometry"/>
                </mxCell>
                <mxCell id="cgvGw8wCGhX5Zy1fIUDP-5" value="" style="verticalLabelPosition=bottom;verticalAlign=top;html=1;shadow=0;dashed=0;strokeWidth=1;shape=mxgraph.android.contact_badge_normal;sketch=0;fontFamily=Lucida Console;fontSize=18;" vertex="1" parent="-K8ZlTlJRHVsNPDddoGD-1">
                    <mxGeometry x="340" y="420" width="60" height="60" as="geometry"/>
                </mxCell>
                <mxCell id="cgvGw8wCGhX5Zy1fIUDP-6" value="&lt;font style=&quot;font-size: 14px&quot;&gt;AMICO 1&lt;/font&gt;" style="text;html=1;strokeColor=none;fillColor=none;align=center;verticalAlign=middle;whiteSpace=wrap;rounded=0;fontFamily=Lucida Console;fontSize=18;" vertex="1" parent="-K8ZlTlJRHVsNPDddoGD-1">
                    <mxGeometry x="394" y="315" width="86" height="30" as="geometry"/>
                </mxCell>
                <mxCell id="cgvGw8wCGhX5Zy1fIUDP-7" value="&lt;font style=&quot;font-size: 14px&quot;&gt;AMICO 2&lt;/font&gt;" style="text;html=1;strokeColor=none;fillColor=none;align=center;verticalAlign=middle;whiteSpace=wrap;rounded=0;fontFamily=Lucida Console;fontSize=18;" vertex="1" parent="-K8ZlTlJRHVsNPDddoGD-1">
                    <mxGeometry x="394" y="375" width="86" height="30" as="geometry"/>
                </mxCell>
                <mxCell id="cgvGw8wCGhX5Zy1fIUDP-8" value="&lt;font style=&quot;font-size: 14px&quot;&gt;AMICO 3&lt;/font&gt;" style="text;html=1;strokeColor=none;fillColor=none;align=center;verticalAlign=middle;whiteSpace=wrap;rounded=0;fontFamily=Lucida Console;fontSize=18;" vertex="1" parent="-K8ZlTlJRHVsNPDddoGD-1">
                    <mxGeometry x="394" y="430" width="86" height="30" as="geometry"/>
                </mxCell>
                <mxCell id="cgvGw8wCGhX5Zy1fIUDP-9" value="SFIDA" style="labelPosition=center;verticalLabelPosition=middle;align=center;html=1;shape=mxgraph.basic.shaded_button;dx=10;fillColor=#F0F0F0;strokeColor=default;strokeWidth=2;" vertex="1" parent="-K8ZlTlJRHVsNPDddoGD-1">
                    <mxGeometry x="490" y="430" width="70" height="40" as="geometry"/>
                </mxCell>
                <mxCell id="cgvGw8wCGhX5Zy1fIUDP-11" value="SFIDA" style="labelPosition=center;verticalLabelPosition=middle;align=center;html=1;shape=mxgraph.basic.shaded_button;dx=10;fillColor=#F0F0F0;strokeColor=default;strokeWidth=2;" vertex="1" parent="-K8ZlTlJRHVsNPDddoGD-1">
                    <mxGeometry x="490" y="370" width="70" height="40" as="geometry"/>
                </mxCell>
                <mxCell id="cgvGw8wCGhX5Zy1fIUDP-12" value="SFIDA" style="labelPosition=center;verticalLabelPosition=middle;align=center;html=1;shape=mxgraph.basic.shaded_button;dx=10;fillColor=#F0F0F0;strokeColor=default;strokeWidth=2;" vertex="1" parent="-K8ZlTlJRHVsNPDddoGD-1">
                    <mxGeometry x="490" y="315" width="70" height="40" as="geometry"/>
                </mxCell>
                <mxCell id="cgvGw8wCGhX5Zy1fIUDP-13" value="AMICI ONLINE:" style="text;html=1;strokeColor=none;fillColor=none;align=center;verticalAlign=middle;whiteSpace=wrap;rounded=0;fontFamily=Lucida Console;fontSize=14;" vertex="1" parent="-K8ZlTlJRHVsNPDddoGD-1">
                    <mxGeometry x="340" y="270" width="130" height="30" as="geometry"/>
                </mxCell>
                <mxCell id="cgvGw8wCGhX5Zy1fIUDP-15" value="" style="rounded=0;whiteSpace=wrap;html=1;fontFamily=Lucida Console;fontSize=14;" vertex="1" parent="-K8ZlTlJRHVsNPDddoGD-1">
                    <mxGeometry x="340" y="527.5" width="230" height="55" as="geometry"/>
                </mxCell>
                <mxCell id="cgvGw8wCGhX5Zy1fIUDP-16" value="&lt;font style=&quot;font-size: 18px&quot;&gt;GIOCA IN LOCALE&lt;/font&gt;" style="text;html=1;strokeColor=none;fillColor=none;align=center;verticalAlign=middle;whiteSpace=wrap;rounded=0;fontFamily=Lucida Console;fontSize=14;" vertex="1" parent="-K8ZlTlJRHVsNPDddoGD-1">
                    <mxGeometry x="405" y="542.5" width="100" height="25" as="geometry"/>
                </mxCell>
            </root>
        </mxGraphModel>
    </diagram>
    <diagram id="rkIZDpidAqjVz1XSIJlu" name="Multi Player">
        <mxGraphModel dx="1102" dy="865" grid="1" gridSize="10" guides="1" tooltips="1" connect="1" arrows="1" fold="1" page="1" pageScale="1" pageWidth="827" pageHeight="1169" math="0" shadow="0">
            <root>
                <mxCell id="2mkj5cyRao-IpPE7oDCH-0"/>
                <mxCell id="2mkj5cyRao-IpPE7oDCH-1" parent="2mkj5cyRao-IpPE7oDCH-0"/>
                <mxCell id="shlQatIOdGg3tC9Rw3XE-0" value="" style="rounded=0;whiteSpace=wrap;html=1;labelBackgroundColor=#D9D9D9;fontFamily=Lucida Console;fontSize=14;fontColor=default;strokeColor=#000033;fillColor=#D9D9D9;" vertex="1" parent="2mkj5cyRao-IpPE7oDCH-1">
                    <mxGeometry x="260" y="170" width="290" height="520" as="geometry"/>
                </mxCell>
                <mxCell id="shlQatIOdGg3tC9Rw3XE-1" value="" style="verticalLabelPosition=bottom;verticalAlign=top;html=1;shadow=0;dashed=0;strokeWidth=1;shape=mxgraph.android.phone2;strokeColor=#c0c0c0;rounded=0;labelBackgroundColor=#D9D9D9;fontFamily=Lucida Console;fontSize=14;fontColor=default;fillColor=#FFFFFF;" vertex="1" parent="2mkj5cyRao-IpPE7oDCH-1">
                    <mxGeometry x="250" y="120" width="310" height="610" as="geometry"/>
                </mxCell>
                <mxCell id="shlQatIOdGg3tC9Rw3XE-2" value="" style="line;strokeWidth=2;html=1;rounded=0;labelBackgroundColor=#D9D9D9;fontFamily=Lucida Console;fontSize=14;fontColor=default;fillColor=#D9D9D9;shadow=1;" vertex="1" parent="2mkj5cyRao-IpPE7oDCH-1">
                    <mxGeometry x="300" y="380" width="210" height="10" as="geometry"/>
                </mxCell>
                <mxCell id="shlQatIOdGg3tC9Rw3XE-3" value="" style="line;strokeWidth=2;html=1;rounded=0;labelBackgroundColor=#D9D9D9;fontFamily=Lucida Console;fontSize=14;fontColor=default;fillColor=#D9D9D9;shadow=1;" vertex="1" parent="2mkj5cyRao-IpPE7oDCH-1">
                    <mxGeometry x="300" y="460" width="210" height="10" as="geometry"/>
                </mxCell>
                <mxCell id="shlQatIOdGg3tC9Rw3XE-4" value="" style="line;strokeWidth=2;html=1;rounded=0;labelBackgroundColor=#D9D9D9;fontFamily=Lucida Console;fontSize=14;fontColor=default;fillColor=#D9D9D9;rotation=-90;gradientColor=none;gradientDirection=north;shadow=1;" vertex="1" parent="2mkj5cyRao-IpPE7oDCH-1">
                    <mxGeometry x="260" y="425" width="210" height="10" as="geometry"/>
                </mxCell>
                <mxCell id="shlQatIOdGg3tC9Rw3XE-5" value="" style="line;strokeWidth=2;html=1;rounded=0;labelBackgroundColor=#D9D9D9;fontFamily=Lucida Console;fontSize=14;fontColor=default;fillColor=#D9D9D9;rotation=-90;shadow=1;" vertex="1" parent="2mkj5cyRao-IpPE7oDCH-1">
                    <mxGeometry x="340" y="425" width="210" height="10" as="geometry"/>
                </mxCell>
                <mxCell id="shlQatIOdGg3tC9Rw3XE-6" value="" style="strokeWidth=2;html=1;shape=mxgraph.flowchart.start_2;whiteSpace=wrap;rounded=0;labelBackgroundColor=#D9D9D9;fontFamily=Lucida Console;fontSize=14;fontColor=default;fillColor=#1A1A1A;shadow=1;" vertex="1" parent="2mkj5cyRao-IpPE7oDCH-1">
                    <mxGeometry x="300" y="320" width="50" height="50" as="geometry"/>
                </mxCell>
                <mxCell id="shlQatIOdGg3tC9Rw3XE-7" value="" style="strokeWidth=2;html=1;shape=mxgraph.flowchart.start_2;whiteSpace=wrap;rounded=0;labelBackgroundColor=#D9D9D9;fontFamily=Lucida Console;fontSize=14;fontColor=default;fillColor=#1A1A1A;shadow=1;" vertex="1" parent="2mkj5cyRao-IpPE7oDCH-1">
                    <mxGeometry x="300" y="480" width="50" height="50" as="geometry"/>
                </mxCell>
                <mxCell id="shlQatIOdGg3tC9Rw3XE-8" value="" style="strokeWidth=2;html=1;shape=mxgraph.flowchart.start_2;whiteSpace=wrap;rounded=0;labelBackgroundColor=#D9D9D9;fontFamily=Lucida Console;fontSize=14;fontColor=default;fillColor=#1A1A1A;shadow=1;" vertex="1" parent="2mkj5cyRao-IpPE7oDCH-1">
                    <mxGeometry x="460" y="400" width="50" height="50" as="geometry"/>
                </mxCell>
                <mxCell id="shlQatIOdGg3tC9Rw3XE-9" value="" style="line;strokeWidth=2;html=1;rounded=0;labelBackgroundColor=#D9D9D9;fontFamily=Lucida Console;fontSize=14;fontColor=default;fillColor=#1A1A1A;rotation=45;shadow=1;" vertex="1" parent="2mkj5cyRao-IpPE7oDCH-1">
                    <mxGeometry x="290" y="420" width="60" height="10" as="geometry"/>
                </mxCell>
                <mxCell id="shlQatIOdGg3tC9Rw3XE-10" value="" style="line;strokeWidth=2;html=1;rounded=0;labelBackgroundColor=#D9D9D9;fontFamily=Lucida Console;fontSize=14;fontColor=default;fillColor=#1A1A1A;rotation=-45;shadow=1;" vertex="1" parent="2mkj5cyRao-IpPE7oDCH-1">
                    <mxGeometry x="290" y="420" width="60" height="10" as="geometry"/>
                </mxCell>
                <mxCell id="shlQatIOdGg3tC9Rw3XE-11" value="" style="line;strokeWidth=2;html=1;rounded=0;labelBackgroundColor=#D9D9D9;fontFamily=Lucida Console;fontSize=14;fontColor=default;fillColor=#1A1A1A;rotation=45;shadow=1;sketch=0;" vertex="1" parent="2mkj5cyRao-IpPE7oDCH-1">
                    <mxGeometry x="375" y="350" width="60" height="10" as="geometry"/>
                </mxCell>
                <mxCell id="shlQatIOdGg3tC9Rw3XE-12" value="" style="line;strokeWidth=2;html=1;rounded=0;labelBackgroundColor=#D9D9D9;fontFamily=Lucida Console;fontSize=14;fontColor=default;fillColor=#1A1A1A;rotation=-45;shadow=1;" vertex="1" parent="2mkj5cyRao-IpPE7oDCH-1">
                    <mxGeometry x="375" y="350" width="60" height="10" as="geometry"/>
                </mxCell>
                <mxCell id="shlQatIOdGg3tC9Rw3XE-13" value="" style="line;strokeWidth=2;html=1;rounded=0;labelBackgroundColor=#D9D9D9;fontFamily=Lucida Console;fontSize=14;fontColor=default;fillColor=#1A1A1A;rotation=45;" vertex="1" parent="2mkj5cyRao-IpPE7oDCH-1">
                    <mxGeometry x="375" y="425" width="60" height="10" as="geometry"/>
                </mxCell>
                <mxCell id="shlQatIOdGg3tC9Rw3XE-14" value="" style="line;strokeWidth=2;html=1;rounded=0;labelBackgroundColor=#D9D9D9;fontFamily=Lucida Console;fontSize=14;fontColor=default;fillColor=#1A1A1A;rotation=-45;" vertex="1" parent="2mkj5cyRao-IpPE7oDCH-1">
                    <mxGeometry x="375" y="425" width="60" height="10" as="geometry"/>
                </mxCell>
                <mxCell id="shlQatIOdGg3tC9Rw3XE-15" value="" style="line;strokeWidth=2;html=1;rounded=0;labelBackgroundColor=#D9D9D9;fontFamily=Lucida Console;fontSize=14;fontColor=default;fillColor=#1A1A1A;rotation=45;" vertex="1" parent="2mkj5cyRao-IpPE7oDCH-1">
                    <mxGeometry x="375" y="500" width="60" height="10" as="geometry"/>
                </mxCell>
                <mxCell id="shlQatIOdGg3tC9Rw3XE-16" value="" style="line;strokeWidth=2;html=1;rounded=0;labelBackgroundColor=#D9D9D9;fontFamily=Lucida Console;fontSize=14;fontColor=default;fillColor=#1A1A1A;rotation=-45;" vertex="1" parent="2mkj5cyRao-IpPE7oDCH-1">
                    <mxGeometry x="375" y="500" width="60" height="10" as="geometry"/>
                </mxCell>
                <mxCell id="shlQatIOdGg3tC9Rw3XE-17" value="" style="line;strokeWidth=2;html=1;rounded=0;labelBackgroundColor=#D9D9D9;fontFamily=Lucida Console;fontSize=14;fontColor=default;fillColor=#1A1A1A;rotation=-90;shadow=1;" vertex="1" parent="2mkj5cyRao-IpPE7oDCH-1">
                    <mxGeometry x="305" y="425" width="200" height="10" as="geometry"/>
                </mxCell>
                <mxCell id="shlQatIOdGg3tC9Rw3XE-18" value="" style="ellipse;fillColor=#000000;strokeColor=#000000;rounded=0;labelBackgroundColor=#D9D9D9;fontFamily=Lucida Console;fontSize=18;fontColor=default;html=1;" vertex="1" parent="2mkj5cyRao-IpPE7oDCH-1">
                    <mxGeometry x="340" y="250" width="10" height="10" as="geometry"/>
                </mxCell>
                <mxCell id="shlQatIOdGg3tC9Rw3XE-19" value="" style="ellipse;fillColor=#ffffff;strokeColor=#000000;rounded=0;labelBackgroundColor=#D9D9D9;fontFamily=Lucida Console;fontSize=18;fontColor=default;html=1;" vertex="1" parent="2mkj5cyRao-IpPE7oDCH-1">
                    <mxGeometry x="360" y="250" width="10" height="10" as="geometry"/>
                </mxCell>
                <mxCell id="shlQatIOdGg3tC9Rw3XE-20" value="" style="ellipse;fillColor=#ffffff;strokeColor=#000000;rounded=0;labelBackgroundColor=#D9D9D9;fontFamily=Lucida Console;fontSize=18;fontColor=default;html=1;" vertex="1" parent="2mkj5cyRao-IpPE7oDCH-1">
                    <mxGeometry x="380" y="250" width="10" height="10" as="geometry"/>
                </mxCell>
                <mxCell id="shlQatIOdGg3tC9Rw3XE-21" value="" style="line;strokeWidth=2;html=1;rounded=0;labelBackgroundColor=#D9D9D9;fontFamily=Lucida Console;fontSize=18;fontColor=default;fillColor=#1A1A1A;" vertex="1" parent="2mkj5cyRao-IpPE7oDCH-1">
                    <mxGeometry x="397.5" y="250" width="15" height="10" as="geometry"/>
                </mxCell>
                <mxCell id="shlQatIOdGg3tC9Rw3XE-22" value="" style="ellipse;fillColor=#ffffff;strokeColor=#000000;rounded=0;labelBackgroundColor=#D9D9D9;fontFamily=Lucida Console;fontSize=18;fontColor=default;html=1;" vertex="1" parent="2mkj5cyRao-IpPE7oDCH-1">
                    <mxGeometry x="420" y="250" width="10" height="10" as="geometry"/>
                </mxCell>
                <mxCell id="shlQatIOdGg3tC9Rw3XE-23" value="" style="ellipse;fillColor=#ffffff;strokeColor=#000000;rounded=0;labelBackgroundColor=#D9D9D9;fontFamily=Lucida Console;fontSize=18;fontColor=default;html=1;" vertex="1" parent="2mkj5cyRao-IpPE7oDCH-1">
                    <mxGeometry x="440" y="250" width="10" height="10" as="geometry"/>
                </mxCell>
                <mxCell id="shlQatIOdGg3tC9Rw3XE-24" value="" style="ellipse;fillColor=#ffffff;strokeColor=#000000;rounded=0;labelBackgroundColor=#D9D9D9;fontFamily=Lucida Console;fontSize=18;fontColor=default;html=1;" vertex="1" parent="2mkj5cyRao-IpPE7oDCH-1">
                    <mxGeometry x="460" y="250" width="10" height="10" as="geometry"/>
                </mxCell>
                <mxCell id="shlQatIOdGg3tC9Rw3XE-27" value="" style="shape=image;html=1;verticalAlign=top;verticalLabelPosition=bottom;labelBackgroundColor=#ffffff;imageAspect=0;aspect=fixed;image=https://cdn4.iconfinder.com/data/icons/evil-icons-user-interface/64/menu-128.png;fontFamily=Lucida Console;fontSize=22;" vertex="1" parent="2mkj5cyRao-IpPE7oDCH-1">
                    <mxGeometry x="510" y="180" width="30" height="30" as="geometry"/>
                </mxCell>
                <mxCell id="shlQatIOdGg3tC9Rw3XE-28" value="" style="sketch=0;pointerEvents=1;shadow=0;dashed=0;html=1;strokeColor=none;fillColor=#505050;labelPosition=center;verticalLabelPosition=bottom;verticalAlign=top;outlineConnect=0;align=center;shape=mxgraph.office.concepts.home;rounded=0;labelBackgroundColor=#D9D9D9;fontFamily=Lucida Console;fontSize=18;fontColor=default;" vertex="1" parent="2mkj5cyRao-IpPE7oDCH-1">
                    <mxGeometry x="272" y="180" width="33" height="30" as="geometry"/>
                </mxCell>
                <mxCell id="shlQatIOdGg3tC9Rw3XE-29" value="200 COINS" style="text;html=1;strokeColor=none;fillColor=#D9D9D9;align=center;verticalAlign=middle;whiteSpace=wrap;rounded=0;shadow=0;labelBackgroundColor=#D9D9D9;sketch=0;fontFamily=Lucida Console;fontSize=14;fontColor=default;" vertex="1" parent="2mkj5cyRao-IpPE7oDCH-1">
                    <mxGeometry x="384" y="580" width="60" height="30" as="geometry"/>
                </mxCell>
                <mxCell id="shlQatIOdGg3tC9Rw3XE-30" value="" style="shape=image;imageAspect=0;aspect=fixed;verticalLabelPosition=bottom;verticalAlign=top;labelBackgroundColor=#EBEBEB;strokeColor=default;strokeWidth=2;fillColor=#F0F0F0;image=https://image.flaticon.com/icons/png/512/47/47902.png;" vertex="1" parent="2mkj5cyRao-IpPE7oDCH-1">
                    <mxGeometry x="440" y="577.5" width="35" height="35" as="geometry"/>
                </mxCell>
                <mxCell id="shlQatIOdGg3tC9Rw3XE-31" value="" style="shape=image;imageAspect=0;aspect=fixed;verticalLabelPosition=bottom;verticalAlign=top;labelBackgroundColor=#EBEBEB;strokeColor=default;strokeWidth=2;fillColor=#F0F0F0;image=https://image.flaticon.com/icons/png/512/47/47902.png;" vertex="1" parent="2mkj5cyRao-IpPE7oDCH-1">
                    <mxGeometry x="355" y="577.5" width="35" height="35" as="geometry"/>
                </mxCell>
                <mxCell id="shlQatIOdGg3tC9Rw3XE-32" value="" style="verticalLabelPosition=bottom;verticalAlign=top;html=1;shadow=0;dashed=0;strokeWidth=1;shape=mxgraph.android.contact_badge_normal;sketch=0;" vertex="1" parent="2mkj5cyRao-IpPE7oDCH-1">
                    <mxGeometry x="290" y="235" width="40" height="40" as="geometry"/>
                </mxCell>
                <mxCell id="shlQatIOdGg3tC9Rw3XE-33" value="" style="verticalLabelPosition=bottom;verticalAlign=top;html=1;shadow=0;dashed=0;strokeWidth=1;shape=mxgraph.android.contact_badge_normal;sketch=0;" vertex="1" parent="2mkj5cyRao-IpPE7oDCH-1">
                    <mxGeometry x="480" y="235" width="40" height="40" as="geometry"/>
                </mxCell>
                <mxCell id="shlQatIOdGg3tC9Rw3XE-34" value="Player 1" style="text;html=1;strokeColor=none;fillColor=none;align=center;verticalAlign=middle;whiteSpace=wrap;rounded=0;" vertex="1" parent="2mkj5cyRao-IpPE7oDCH-1">
                    <mxGeometry x="280" y="275" width="60" height="30" as="geometry"/>
                </mxCell>
                <mxCell id="shlQatIOdGg3tC9Rw3XE-35" value="Player 2" style="text;html=1;strokeColor=none;fillColor=none;align=center;verticalAlign=middle;whiteSpace=wrap;rounded=0;" vertex="1" parent="2mkj5cyRao-IpPE7oDCH-1">
                    <mxGeometry x="470" y="275" width="60" height="30" as="geometry"/>
                </mxCell>
            </root>
        </mxGraphModel>
    </diagram>
</mxfile>